<svg viewBox="0 0 312.5 309.9778439736934" height="40" width="40">
    <defs id="SvgjsDefs5356"></defs>
    <g id="SvgjsG5357" featurekey="rootContainer"
        transform="matrix(3.0663293604554758,0,0,3.0663293604554758,0.13628133105503454,-0.02809603534088609)"
        fill="#000000">
        <path xmlns="http://www.w3.org/2000/svg"
            d="M101.8 83.6l-.2-29.5c0-6 .1-12.2-.2-18-.1-2.5-.1-5.1-.1-7.8 0-4.7-.1-9-.4-13.2l-.2-4.2c-.1-2.7-.2-5.3-.3-8V1h-7.3L77.2.7H66.6a25.7 25.7 0 0 0-5.5.6l-.6.3H49.8c-.1-.2-.8-.3-2.2-.4L34.3.3a130.5 130.5 0 0 0-18.8.1C12.3.6 9 .8 4.6.9L1.5.5H.4v1.2c-.2 2-.3 4.3-.3 7s0 6.8-.1 10.2 0 5.3 0 8a42.2 42.2 0 0 0 .4 6.9 20.3 20.3 0 0 1 .3 2.9c.1 3.8.4 4.8.8 5.5v17.6l-.2.5c.1 4-.1 7.6-.2 11.3-.3 7.4-.4 15-.1 22.5a25.5 25.5 0 0 0 .5 4.9v.8H6l-.2.2h5.4a51 51 0 0 1 8.6.4 21.1 21.1 0 0 0 3.8.3c6.6-.1 12.7.1 18.9.4h6.7l13.9-.3c6.1-.1 11.9-.5 18.3-.5h9.7l3.5-.2 2.8-.5h2.3v-1c.3 1.6.6 1.4 1-.8.1-.6.2-1.3.3-2s.3-2.6.5-3.4a51.3 51.3 0 0 0 .3-8.8z">
        </path>
    </g>
    <g id="SvgjsG5358" featurekey="symbolFeature-0"
        transform="matrix(0.9132419455024373,0,0,0.9132419455024373,110.33790011207196,68.00000174187078)"
        fill="#ffffff">
        <polygon xmlns="http://www.w3.org/2000/svg"
            points="26.2,35.4 6.2,47.9 6.2,52.1 26.2,64.6 28.8,60.4 12.2,50 28.8,39.6 "></polygon>
        <polygon xmlns="http://www.w3.org/2000/svg"
            points="71.2,39.6 87.8,50 71.2,60.4 73.8,64.6 93.8,52.1 93.8,47.9 73.8,35.4 "></polygon>
        <polygon xmlns="http://www.w3.org/2000/svg"
            points="51.7,28.7 39,55.9 52.6,62.2 53.6,60 65.2,35 68.4,28.2 54.8,21.9 "></polygon>
        <polygon xmlns="http://www.w3.org/2000/svg" points="38.4,74.9 50.5,66.8 36.9,60.4 "></polygon>
    </g>
    <g id="SvgjsG5359" featurekey="nameFeature-0"
        transform="matrix(1.5878023942415513,0,0,1.5878023942415513,57.4776971877356,133.5335355599256)" fill="#ffffff">
        <path
            d="M-0.16 39.92 c-0.92 -0.44 -0.76 -1.4 -0.76 -2.32 c0 -1.12 0.4 -3.76 0.92 -5.28 c0.08 -0.24 0.16 -0.6 0.48 -0.52 s0.24 0.44 0.2 0.68 c-0.24 1.32 -0.64 2.8 -0.76 4.08 c-0.08 0.88 -0.4 2.16 0.48 2.56 c0.76 0.2 2 -0.72 3.8 -2.84 c0.68 -0.8 1.24 -1.96 0.16 -3.28 c-1.28 -1.56 -0.84 -3.72 0.64 -4.8 c1.32 -0.96 2.68 -0.4 2.88 1.24 c0.12 1.12 -0.12 2.16 -0.56 3.12 c-0.48 1.08 -0.04 1.2 0.92 1.24 c1.16 0.04 2.56 -0.36 4.6 -1.4 c0.24 -0.08 0.64 -0.2 0.72 0 c0.2 0.4 -0.24 0.48 -0.52 0.6 c-2.2 1 -3.52 1.88 -6.12 1.56 c-0.76 -0.08 -1 0.52 -1.36 1 c-0.96 1.36 -1.96 2.68 -3.32 3.68 c-0.76 0.48 -1.48 1.08 -2.4 0.68 z M5.84 33.24 c0.68 0.08 1.36 -1.96 1.36 -3.16 c0 -0.68 0 -1.44 -0.84 -1.56 c-0.68 -0.12 -1.24 0.4 -1.52 1.04 c-0.68 1.4 -0.24 3.68 1 3.68 z M29.828 32.44 c0.4 0.32 -0.04 0.6 -0.24 0.76 c-2.16 2.12 -4.04 4.04 -6.6 5.64 c-0.48 0.28 -0.92 0.56 -1.4 0.76 c-0.92 0.36 -1.84 0.4 -2.64 -0.24 c-0.84 -0.68 -0.8 -1.64 -0.6 -2.56 c0.16 -0.68 0.4 -1.36 0.6 -2 c-1.76 0.84 -2.8 2.64 -4.44 3.68 c-0.56 0.36 -1.08 0.76 -1.68 1.04 c-0.72 0.32 -1.4 0.48 -2.04 -0.08 c-0.6 -0.56 -0.64 -1.32 -0.48 -2.04 c0.6 -2.84 4 -5.64 6.96 -5.72 c0.56 0 1.16 0.2 1.68 0.52 c0.24 0.16 0.44 0.56 0.8 0.36 c0.44 -0.24 0.8 -1 1.28 -0.2 c0.36 0.52 -0.16 0.96 -0.36 1.44 c-0.48 1 -1.12 1.96 -1.36 3.08 c-0.16 0.72 -0.4 1.4 0.32 1.96 c0.72 0.52 1.36 0.28 2.04 -0.08 c1.44 -0.68 2.72 -1.64 3.88 -2.76 c1.2 -1.16 2.28 -2 3.48 -3.16 c0.2 -0.24 0.48 -0.64 0.8 -0.4 z M18.108 34.24 c0.32 -0.32 0.68 -0.68 0.48 -1.2 c-0.28 -0.68 -0.92 -0.36 -1.32 -0.44 c-2.44 0 -5.04 2 -5.96 4.52 c-0.2 0.64 -0.56 1.28 0.12 1.8 c0.6 0.52 1.16 0.04 1.6 -0.24 c1.96 -1.16 3.48 -2.84 5.08 -4.44 z M38.456 39.76 c-0.76 -0.8 -0.4 -1.88 -0.16 -2.84 c0.28 -1.08 0.76 -2.12 0.96 -3.2 c0.24 -1.16 -0.36 -1.6 -1.48 -1.16 c-1.76 0.64 -3.28 1.72 -4.6 3.04 c-1.16 1.16 -2.24 2.32 -3.4 3.44 c-0.28 0.28 -0.56 0.88 -1.12 0.56 c-0.36 -0.2 -0.24 -0.72 -0.16 -1.08 c0.36 -2.28 1.52 -4.2 2.44 -6.28 c0.08 -0.2 0.32 -0.32 0.44 -0.2 c0.12 0.2 0.2 0.52 0.12 0.72 c-0.48 1.16 -1.04 2.32 -1.52 3.48 c-0.2 0.48 -0.44 1 -0.56 1.48 c-0.04 0.2 -0.12 0.76 0.36 0.28 c2 -1.88 3.68 -4.04 6.16 -5.36 c1.04 -0.56 2.16 -1.76 3.4 -0.8 c1.32 1 0.6 2.44 0.24 3.68 c-0.24 0.92 -0.6 1.76 -0.76 2.68 c-0.2 1 0.16 1.48 1.32 1 c1.92 -0.84 3.48 -2.2 5.08 -3.44 c1.4 -1.12 2.48 -2.04 3.88 -3.16 c0.2 -0.2 0.56 -0.52 0.8 -0.2 c0.16 0.2 -0.2 0.4 -0.4 0.56 c-2.4 2.08 -4.52 3.92 -7.12 5.76 c-0.4 0.28 -0.8 0.52 -1.2 0.68 c-0.88 0.4 -1.8 1.28 -2.72 0.36 z M49.684 40.88 c-0.6 -0.72 -0.04 -1.52 1.04 -2.04 c1.04 -0.52 1.24 -1.32 0.92 -2.04 c-1.04 -2.36 -1.36 -3 -1.12 -3.96 c0.24 -0.84 0.92 -1.4 1.72 -1.44 c0.76 -0.04 1.28 0.32 1.6 0.96 c0.28 0.56 0.2 1.48 -0.52 1.96 c-0.16 0.08 -0.44 0.24 -0.6 0.08 c-0.24 -0.16 -0.12 -0.32 0.08 -0.52 c1.04 -0.8 -0.08 -2.2 -0.96 -1.52 c-0.96 0.72 -0.56 1.88 0.76 4.72 c0.12 0.24 0.4 0.6 0.88 0.36 c0.92 -0.4 2.08 -0.92 3.2 -1.44 c2.04 -0.96 3.88 -2.12 5.76 -3.36 c0.24 -0.16 0.56 -0.6 0.84 -0.16 c0.24 0.36 -0.16 0.52 -0.44 0.72 c-2.64 1.88 -5.4 3.44 -8.44 4.6 c-0.96 0.36 -1.68 1 -1.92 1.92 c-0.28 1 -2.04 2.08 -2.8 1.16 z M50.964 40.44 c0.92 -0.36 1.28 -1.68 0.48 -1.28 c-1.72 0.84 -1.24 1.6 -0.48 1.28 z M66.152 40.08 c-2.36 0.16 -3.12 -0.56 -3.24 -2.88 c-0.08 -2.08 0.76 -3.92 1.52 -5.72 c0.84 -1.96 1.72 -3.88 2.6 -5.8 c0.2 -0.48 0.76 -1.32 0.48 -1.48 c-0.08 -0.16 -1.44 0.04 -1.92 0.04 c-1.16 0.12 -3.36 0.24 -4.08 0.24 c-0.24 0 -0.6 0 -0.56 -0.4 c0.04 -0.36 0.4 -0.32 0.6 -0.32 c0.92 -0.04 3.12 -0.12 4.68 -0.24 c2.24 -0.16 1.96 -0.32 2.96 -2.56 c0.52 -1.28 1.24 -2.48 1.88 -3.72 c0.16 -0.28 0.36 -0.68 0.72 -0.48 c0.4 0.2 0.08 0.56 -0.04 0.84 c-0.68 1.36 -1.36 2.72 -2 4.12 c-0.72 1.6 -0.84 1.6 0.04 1.56 c1.04 0 1.64 -0.08 2.04 -0.08 c0.6 0 1.32 -0.16 2.04 -0.16 c0.92 -0.04 1.2 -0.24 1.24 0.32 c0 0.36 -0.52 0.28 -1.4 0.36 c-0.92 0.08 -2.44 0.24 -3.96 0.32 c-1 0 -1.12 0.16 -1.4 0.84 c-1.48 3.48 -3.36 6.76 -4.4 10.4 c-0.36 1.32 -0.76 2.76 0.44 3.72 c1.28 1 2.64 0.32 3.8 -0.52 c2.08 -1.48 4 -3.68 5.68 -5.56 c0.24 -0.28 0.52 -0.84 0.88 -0.6 c0.48 0.4 -0.12 0.68 -0.44 1.24 c-1.92 2.16 -3.68 4.12 -6 5.68 c-0.64 0.44 -1.32 0.8 -2.16 0.84 z M104.5 32.36 c0.2 -0.04 0.6 -0.12 0.6 0.28 c0 0.28 -0.24 0.28 -0.44 0.32 c-3.12 0.76 -5.64 2.28 -8.52 3.56 c-0.8 0.36 -1.32 0.8 -1.8 1.44 c-0.88 1.16 -1.92 2.2 -3.44 2.56 c-1.48 0.4 -3.04 -0.48 -3.36 -1.92 c-0.4 -1.76 0.24 -3.84 1.48 -5.32 c-2.64 0.8 -4.48 2.08 -7.08 3.24 c-0.8 0.36 -1.32 0.8 -1.8 1.44 c-0.88 1.72 -1.92 2.76 -3.44 3.12 c-1.48 0.4 -3.04 -0.48 -3.36 -2.48 c-0.64 -2.72 1.6 -6.6 4.2 -7.48 c2.4 -0.84 4.32 0.52 4.04 3.4 l0 1 c0 0.88 2.32 -0.8 4.48 -1.72 c1.32 -0.6 2.24 -1.04 3.64 -1.36 c0.04 0 0.08 0 0.16 -0.04 c0.48 -0.4 1.04 -0.72 1.6 -0.92 c2.4 -0.84 4.32 0.52 4.32 3.04 l0 1 c0 0.88 2.32 -0.8 4.48 -1.72 c1.32 -0.6 2.84 -1.12 4.24 -1.44 z M80.89999999999999 34 c0.04 -0.48 0 -1.24 -0.32 -1.6 c-0.88 -1 -3.08 0.88 -2.92 2.72 c0.08 0.76 0.88 1 1.56 1.16 c0.96 0.24 1.64 -0.64 1.68 -2.28 z M76.14 40.28 c1.6 0 4.04 -2.72 2.84 -3.16 c-2.48 -0.72 -2.68 -2.4 -1.2 -4.4 c0.08 -0.16 0.24 -0.4 0 -0.52 c-0.12 -0.08 -0.36 0 -0.52 0.08 c-1.52 0.64 -3.4 3.72 -3.24 5.36 c0.12 1.96 0.8 2.64 2.12 2.64 z M95.1 34 c0.04 -0.48 -0.08 -1.12 -0.6 -1.48 c-0.64 -0.48 -0.8 0.56 -1.44 0.64 c-0.88 0.12 -1.12 1.04 -1.04 1.88 c0.08 0.76 0.72 1.08 1.4 1.24 c0.96 0.24 1.64 -0.64 1.68 -2.28 z M93.3 38 c0.32 -0.32 0.4 -0.68 -0.12 -0.88 c-2.08 -0.8 -2.56 -2.12 -1.48 -4.04 c0.08 -0.16 0.24 -0.4 0 -0.52 c-0.12 -0.08 -0.36 0 -0.52 0.08 c-1.52 0.64 -3.12 3.36 -2.96 5 c0.12 1.4 0.8 2.08 2.12 2.08 c1.28 0 2.16 -0.8 2.96 -1.72 z M106.368 18.84 c-0.28 -0.16 -0.16 -0.4 -0.08 -0.68 c0.2 -0.56 0.36 -1.12 0.52 -1.68 c0.12 -0.48 -0.24 -0.68 -0.52 -0.96 c-0.28 -0.36 -0.28 -0.72 0.04 -1.08 c0.28 -0.24 0.56 -0.4 0.92 -0.2 s0.68 0.52 0.6 0.92 c-0.24 1.16 -0.44 2.32 -1 3.4 c-0.08 0.16 -0.24 0.36 -0.48 0.28 z M111.356 40.88 c-0.6 -0.72 -0.04 -1.52 1.04 -2.04 c1.04 -0.52 1.24 -1.32 0.92 -2.04 c-1.04 -2.36 -1.36 -3 -1.12 -3.96 c0.24 -0.84 0.92 -1.4 1.72 -1.44 c0.76 -0.04 1.28 0.32 1.6 0.96 c0.28 0.56 0.2 1.48 -0.52 1.96 c-0.16 0.08 -0.44 0.24 -0.6 0.08 c-0.24 -0.16 -0.12 -0.32 0.08 -0.52 c1.04 -0.8 -0.08 -2.2 -0.96 -1.52 c-0.96 0.72 -0.56 1.88 0.76 4.72 c0.12 0.24 0.4 0.6 0.88 0.36 c0.92 -0.4 2.08 -0.92 3.2 -1.44 c2.04 -0.96 3.88 -2.12 5.76 -3.36 c0.24 -0.16 0.56 -0.6 0.84 -0.16 c0.24 0.36 -0.16 0.52 -0.44 0.72 c-2.64 1.88 -5.4 3.44 -8.44 4.6 c-0.96 0.36 -1.68 1 -1.92 1.92 c-0.28 1 -2.04 2.08 -2.8 1.16 z M112.636 40.44 c0.92 -0.36 1.28 -1.68 0.48 -1.28 c-1.72 0.84 -1.24 1.6 -0.48 1.28 z">
        </path>
    </g>
    <g id="SvgjsG5360" featurekey="sloganFeature-0"
        transform="matrix(0.7751807961391011,0,0,0.7751807961391011,123.43413480658441,204.90704523374615)"
        fill="#ffffff">
        <path
            d="M7.46 20 l-5.44 0 l0 -14.58 l5.24 0 c2.64 -0.04 4.7 1.32 4.7 3.66 c0 0.34 -0.02 0.64 -0.2 1.2 c-0.08 0.28 -0.2 0.52 -0.36 0.76 c-0.3 0.48 -0.9 1.04 -1.66 1.38 c1.02 0.26 1.84 0.88 2.26 1.58 s0.6 1.4 0.6 2 c0 1.36 -0.58 2.42 -1.54 3.06 c-0.96 0.62 -2.2 0.94 -3.6 0.94 z M7.14 6.82 l-3.6 0 l0 5.08 l3.48 0 c1.14 0 1.98 -0.24 2.54 -0.74 s0.84 -1.12 0.84 -1.9 c0 -1.78 -1.6 -2.44 -3.26 -2.44 z M7.2 13.26 l-3.66 0 l0 5.34 l3.96 0 c1.58 0 3.54 -0.64 3.54 -2.7 c0 -1.26 -0.78 -1.96 -1.76 -2.3 c-0.68 -0.26 -1.34 -0.34 -2.08 -0.34 z M24.336000000000002 20 l0 -14.58 l1.54 0 l0 13.14 l6.92 0 l0 1.44 l-8.46 0 z M57.512 12.68 c0 1.38 -0.32 2.64 -0.94 3.78 c-0.64 1.14 -1.52 2.04 -2.64 2.7 c-1.14 0.66 -2.38 1 -3.78 1 c-1.02 0 -1.98 -0.2 -2.9 -0.58 c-0.9 -0.38 -1.68 -0.9 -2.32 -1.58 c-0.64 -0.64 -1.14 -1.42 -1.52 -2.34 c-0.36 -0.92 -0.56 -1.88 -0.56 -2.9 c0 -1.38 0.32 -2.64 0.96 -3.78 c0.62 -1.14 1.5 -2.06 2.64 -2.72 c1.12 -0.66 2.38 -0.98 3.76 -0.98 c1.02 0 1.98 0.18 2.9 0.56 c0.9 0.4 1.68 0.92 2.32 1.56 c0.64 0.68 1.16 1.46 1.52 2.36 c0.38 0.92 0.56 1.88 0.56 2.92 z M55.932 12.76 c0 -1.64 -0.6 -3.16 -1.6 -4.26 s-2.5 -1.8 -4.18 -1.8 c-1.08 0 -2.06 0.28 -2.94 0.8 c-0.88 0.56 -1.56 1.28 -2.04 2.18 c-0.48 0.92 -0.72 1.92 -0.72 3 c0 1.62 0.6 3.16 1.6 4.24 c1 1.1 2.5 1.8 4.16 1.8 c1.08 0 2.06 -0.28 2.94 -0.82 c0.9 -0.52 1.58 -1.26 2.06 -2.16 s0.72 -1.9 0.72 -2.98 z M81.968 9.6 l-1.46 0.52 c-0.18 -0.52 -0.42 -1.06 -1 -1.72 c-0.28 -0.3 -0.6 -0.6 -0.96 -0.84 c-0.72 -0.5 -1.84 -0.86 -3.06 -0.86 c-1.1 0 -2.08 0.26 -2.96 0.82 s-1.56 1.28 -2.04 2.2 c-0.48 0.9 -0.72 1.88 -0.72 2.96 c0 1.64 0.56 3.16 1.52 4.26 c0.98 1.1 2.5 1.78 4.22 1.78 c1.3 0 2.54 -0.42 3.48 -1.14 s1.58 -1.88 1.66 -3.22 l-6.08 0 l0 -1.42 l7.72 0 l0 0.56 c0 1.84 -0.66 3.5 -1.8 4.7 c-1.16 1.2 -2.94 1.94 -5 1.94 c-2.18 0 -4.08 -0.8 -5.32 -2.12 s-1.98 -3.2 -1.98 -5.26 c0 -1.38 0.32 -2.66 0.96 -3.8 s1.52 -2.04 2.64 -2.7 s2.38 -0.98 3.74 -0.98 c1.72 0 3.24 0.48 4.28 1.32 c1.06 0.82 1.76 1.82 2.16 3 z">
        </path>
    </g>
</svg>