<?xml version="1.0" standalone="no"?>
<!DOCTYPE svg PUBLIC "-//W3C//DTD SVG 20010904//EN"
 "http://www.w3.org/TR/2001/REC-SVG-20010904/DTD/svg10.dtd">
<svg version="1.0" xmlns="http://www.w3.org/2000/svg"
 width="977.000000pt" height="977.000000pt" viewBox="0 0 977.000000 977.000000"
 preserveAspectRatio="xMidYMid meet">
<metadata>
Created by potrace 1.14, written by Peter Selinger 2001-2017
</metadata>
<g transform="translate(0.000000,977.000000) scale(0.100000,-0.100000)"
fill="#000000" stroke="none">
<path d="M2089 9726 c-2 -2 -83 -7 -179 -10 -96 -4 -193 -9 -215 -10 -22 -2
-94 -7 -160 -11 -66 -4 -140 -8 -165 -10 -25 -1 -103 -6 -175 -10 -71 -4 -150
-9 -175 -10 -60 -4 -482 -18 -545 -18 -46 0 -131 8 -195 19 -14 2 -50 6 -80 9
-148 15 -162 12 -158 -41 2 -25 -7 -174 -18 -324 -7 -81 -18 -1232 -18 -1835
0 -521 5 -735 19 -840 2 -16 7 -52 10 -80 5 -48 9 -74 20 -140 6 -37 13 -143
20 -290 10 -215 26 -332 57 -403 17 -41 18 -89 18 -881 0 -488 -4 -850 -9
-867 -5 -16 -12 -211 -15 -434 -3 -223 -8 -461 -11 -530 -22 -547 -29 -862
-29 -1370 0 -442 10 -986 19 -1055 2 -16 7 -65 10 -107 6 -78 8 -89 25 -187 6
-30 10 -71 10 -91 l0 -36 210 1 c136 0 210 -4 210 -10 0 -7 158 -10 467 -10
405 0 577 -5 708 -19 92 -11 150 -18 235 -30 67 -10 234 -14 575 -16 557 -2
794 -7 1215 -27 209 -10 1208 -10 1615 0 382 9 600 15 910 22 132 3 276 8 320
10 44 2 161 7 260 10 99 3 234 8 300 11 66 3 449 7 852 9 889 4 980 7 1188 47
68 13 154 21 225 22 l115 1 4 40 3 40 12 -39 c14 -49 33 -56 47 -19 13 34 45
189 54 262 4 30 8 61 10 70 1 9 6 43 9 76 8 69 9 76 30 205 45 284 45 271 31
2080 -4 487 -8 1344 -10 1905 -3 930 -7 1212 -21 1478 -2 51 -6 364 -9 697 -2
333 -7 666 -10 740 -11 285 -16 387 -20 435 -2 28 -6 106 -10 175 -3 69 -7
159 -10 200 -2 41 -7 152 -10 245 -4 94 -8 211 -10 260 -3 50 -7 203 -11 340
-4 138 -8 252 -10 254 -3 3 -231 6 -507 7 -276 2 -596 5 -712 8 -825 19 -1984
26 -2187 13 -90 -6 -271 -30 -327 -44 -15 -3 -39 -12 -55 -20 -23 -12 -115
-15 -535 -15 -344 -1 -518 2 -541 10 -52 16 -118 24 -325 37 -49 3 -119 7
-155 10 -36 3 -103 7 -150 10 -47 3 -110 7 -140 10 -30 2 -98 7 -150 10 -52 3
-120 8 -150 10 -30 2 -100 7 -155 10 -55 3 -111 7 -125 10 -14 2 -88 7 -165
10 -77 4 -165 9 -195 12 -69 5 -956 13 -961 9z"/>
</g>
</svg>
